<svg width="335" height="555" viewBox="0 0 335 555" fill="none" xmlns="http://www.w3.org/2000/svg">
<path d="M280.873 1.77551C280.171 2.75977 272.033 17.1017 262.912 33.4122L246.214 63.3615H128.768C33.6321 63.3615 11.0409 63.6427 9.91835 65.1894C7.67326 67.8609 -1.58775 220.982 0.236392 223.372C1.0783 224.357 3.60403 225.06 5.98944 224.779C10.199 224.357 10.199 224.357 13.9876 207.484C18.3375 188.08 22.547 176.128 31.5274 158.271C61.1345 99.4975 107.299 78.9689 206.925 80.5156L236.392 80.9374L125.12 279.897C29.4226 450.875 13.8473 479.559 14.1279 483.777L14.5489 488.698L38.1223 489.12C56.0831 489.401 61.6958 489.823 61.1345 491.229C60.8539 492.073 53.2767 505.993 44.2963 522.022C32.7902 542.832 28.5807 551.409 29.7032 552.534C30.5451 553.378 35.8772 554.081 41.3497 554.081C50.33 554.081 51.8735 553.659 54.1186 550.706C55.5218 548.878 63.9409 534.396 72.781 518.366L88.9176 489.401H207.206C300.518 489.401 325.635 488.98 326.055 487.573C327.599 483.215 336.018 331.078 334.755 329.39C333.071 327.141 327.459 327.141 325.635 329.531C324.793 330.515 322.828 337.264 321.144 344.576C315.672 370.307 307.113 390.976 293.923 411.505C277.365 436.674 258.983 451.156 230.639 460.858C206.364 469.154 182.229 472.247 134.1 473.513L97.477 474.356L103.23 463.951C106.457 458.187 156.691 368.198 215.064 263.867C281.013 146.039 321.144 72.7822 321.144 70.3918C321.144 63.7833 319.461 63.3615 295.606 63.3615C283.399 63.3615 273.436 63.0803 273.436 62.6584C273.436 62.3772 280.733 48.8789 289.573 32.8497C298.553 16.8205 305.429 2.90039 305.148 1.91614C304.166 -0.614807 282.697 -0.614807 280.873 1.77551ZM285.784 86.1399C283.96 89.5144 234.849 178.097 176.757 282.99L71.0971 473.935H58.6088C51.7332 473.935 46.1205 473.653 46.1205 473.232C46.1205 472.388 258.141 89.0926 261.649 83.3277C263.474 80.5156 264.736 80.2343 276.383 80.2343H289.152L285.784 86.1399Z" fill="#212640"/>
</svg>
